0
SECTION
2
HEADER
9
$INSUNITS
70
4
0
ENDSEC
0
SECTION
2
ENTITIES
0
LWPOLYLINE
8
CUT
100
AcDbEntity
100
AcDbPolyline
90
8
70
1
10
8.9000
20
186.8000
10
88.9000
20
186.8000
42
0.41421356
10
91.9000
20
189.8000
10
91.9000
20
237.8000
42
0.41421356
10
88.9000
20
240.8000
10
8.9000
20
240.8000
42
0.41421356
10
5.9000
20
237.8000
10
5.9000
20
189.8000
42
0.41421356
0
LWPOLYLINE
8
CUT
100
AcDbEntity
100
AcDbPolyline
90
8
70
1
10
101.2000
20
186.8000
10
181.2000
20
186.8000
42
0.41421356
10
184.2000
20
189.8000
10
184.2000
20
237.8000
42
0.41421356
10
181.2000
20
240.8000
10
101.2000
20
240.8000
42
0.41421356
10
98.2000
20
237.8000
10
98.2000
20
189.8000
42
0.41421356
0
LWPOLYLINE
8
CUT
100
AcDbEntity
100
AcDbPolyline
90
8
70
1
10
193.5000
20
186.8000
10
273.5000
20
186.8000
42
0.41421356
10
276.5000
20
189.8000
10
276.5000
20
237.8000
42
0.41421356
10
273.5000
20
240.8000
10
193.5000
20
240.8000
42
0.41421356
10
190.5000
20
237.8000
10
190.5000
20
189.8000
42
0.41421356
0
LWPOLYLINE
8
CUT
100
AcDbEntity
100
AcDbPolyline
90
8
70
1
10
8.9000
20
126.5000
10
88.9000
20
126.5000
42
0.41421356
10
91.9000
20
129.5000
10
91.9000
20
177.5000
42
0.41421356
10
88.9000
20
180.5000
10
8.9000
20
180.5000
42
0.41421356
10
5.9000
20
177.5000
10
5.9000
20
129.5000
42
0.41421356
0
LWPOLYLINE
8
CUT
100
AcDbEntity
100
AcDbPolyline
90
8
70
1
10
101.2000
20
126.5000
10
181.2000
20
126.5000
42
0.41421356
10
184.2000
20
129.5000
10
184.2000
20
177.5000
42
0.41421356
10
181.2000
20
180.5000
10
101.2000
20
180.5000
42
0.41421356
10
98.2000
20
177.5000
10
98.2000
20
129.5000
42
0.41421356
0
LWPOLYLINE
8
CUT
100
AcDbEntity
100
AcDbPolyline
90
8
70
1
10
193.5000
20
126.5000
10
273.5000
20
126.5000
42
0.41421356
10
276.5000
20
129.5000
10
276.5000
20
177.5000
42
0.41421356
10
273.5000
20
180.5000
10
193.5000
20
180.5000
42
0.41421356
10
190.5000
20
177.5000
10
190.5000
20
129.5000
42
0.41421356
0
LWPOLYLINE
8
CUT
100
AcDbEntity
100
AcDbPolyline
90
8
70
1
10
8.9000
20
66.2000
10
88.9000
20
66.2000
42
0.41421356
10
91.9000
20
69.2000
10
91.9000
20
117.2000
42
0.41421356
10
88.9000
20
120.2000
10
8.9000
20
120.2000
42
0.41421356
10
5.9000
20
117.2000
10
5.9000
20
69.2000
42
0.41421356
0
LWPOLYLINE
8
CUT
100
AcDbEntity
100
AcDbPolyline
90
8
70
1
10
101.2000
20
66.2000
10
181.2000
20
66.2000
42
0.41421356
10
184.2000
20
69.2000
10
184.2000
20
117.2000
42
0.41421356
10
181.2000
20
120.2000
10
101.2000
20
120.2000
42
0.41421356
10
98.2000
20
117.2000
10
98.2000
20
69.2000
42
0.41421356
0
LWPOLYLINE
8
CUT
100
AcDbEntity
100
AcDbPolyline
90
8
70
1
10
193.5000
20
66.2000
10
273.5000
20
66.2000
42
0.41421356
10
276.5000
20
69.2000
10
276.5000
20
117.2000
42
0.41421356
10
273.5000
20
120.2000
10
193.5000
20
120.2000
42
0.41421356
10
190.5000
20
117.2000
10
190.5000
20
69.2000
42
0.41421356
0
LWPOLYLINE
8
CUT
100
AcDbEntity
100
AcDbPolyline
90
8
70
1
10
8.9000
20
5.9000
10
88.9000
20
5.9000
42
0.41421356
10
91.9000
20
8.9000
10
91.9000
20
56.9000
42
0.41421356
10
88.9000
20
59.9000
10
8.9000
20
59.9000
42
0.41421356
10
5.9000
20
56.9000
10
5.9000
20
8.9000
42
0.41421356
0
LWPOLYLINE
8
CUT
100
AcDbEntity
100
AcDbPolyline
90
8
70
1
10
101.2000
20
5.9000
10
181.2000
20
5.9000
42
0.41421356
10
184.2000
20
8.9000
10
184.2000
20
56.9000
42
0.41421356
10
181.2000
20
59.9000
10
101.2000
20
59.9000
42
0.41421356
10
98.2000
20
56.9000
10
98.2000
20
8.9000
42
0.41421356
0
LWPOLYLINE
8
CUT
100
AcDbEntity
100
AcDbPolyline
90
8
70
1
10
193.5000
20
5.9000
10
273.5000
20
5.9000
42
0.41421356
10
276.5000
20
8.9000
10
276.5000
20
56.9000
42
0.41421356
10
273.5000
20
59.9000
10
193.5000
20
59.9000
42
0.41421356
10
190.5000
20
56.9000
10
190.5000
20
8.9000
42
0.41421356
0
LINE
8
REG
10
0.0000
20
0.0000
30
0
11
6.0000
21
0.0000
31
0
0
LINE
8
REG
10
0.0000
20
0.0000
30
0
11
0.0000
21
6.0000
31
0
0
LINE
8
REG
10
282.4000
20
0.0000
30
0
11
276.4000
21
0.0000
31
0
0
LINE
8
REG
10
282.4000
20
0.0000
30
0
11
282.4000
21
6.0000
31
0
0
LINE
8
REG
10
0.0000
20
246.7000
30
0
11
6.0000
21
246.7000
31
0
0
LINE
8
REG
10
0.0000
20
246.7000
30
0
11
0.0000
21
240.7000
31
0
0
LINE
8
REG
10
282.4000
20
246.7000
30
0
11
276.4000
21
246.7000
31
0
0
LINE
8
REG
10
282.4000
20
246.7000
30
0
11
282.4000
21
240.7000
31
0
0
ENDSEC
0
EOF
